<?xml version="1.0" encoding="utf-8"?>
<!-- Generator: Adobe Illustrator 16.0.4, SVG Export Plug-In . SVG Version: 6.00 Build 0)  -->
<!DOCTYPE svg PUBLIC "-//W3C//DTD SVG 1.1//EN" "http://www.w3.org/Graphics/SVG/1.1/DTD/svg11.dtd">
<svg version="1.1" id="Layer_1" xmlns="http://www.w3.org/2000/svg" xmlns:xlink="http://www.w3.org/1999/xlink" x="0px" y="0px"
	 width="288px" height="238px" viewBox="0 0 288 238" enable-background="new 0 0 288 238" xml:space="preserve">
<g>
	<g>
		<path fill="#FFFFFF" d="M35.558,148.502c0,2.761,2.239,5,5,5h207c2.762,0,5-2.239,5-5v-111c0-2.761-2.238-5-5-5h-207
			c-2.761,0-5,2.239-5,5V148.502z"/>
		<path d="M247.558,155.002h-207c-3.584,0-6.5-2.916-6.5-6.5v-111c0-3.584,2.916-6.5,6.5-6.5h207c3.584,0,6.5,2.916,6.5,6.5v111
			C254.058,152.086,251.142,155.002,247.558,155.002z M40.558,34.002c-1.93,0-3.5,1.57-3.5,3.5v111c0,1.93,1.57,3.5,3.5,3.5h207
			c1.93,0,3.5-1.57,3.5-3.5v-111c0-1.93-1.57-3.5-3.5-3.5H40.558z"/>
	</g>
	<g>
		<path d="M54.956,73.357v6.139h4.06v2.641h-4.06v9.076c0,0.693,0.363,1.254,1.122,1.254c1.254,0,1.584-0.891,1.584-2.409v-2.574
			h2.641v2.938c0,3.234-1.584,5.017-5.545,5.017c-3.399,0-5.281-1.65-5.281-5.017v-8.284h-2.211v-2.641
			c3.301,0,4.159-3.399,4.423-6.139H54.956z"/>
		<path d="M80.664,79.496v2.641h-0.627c-1.287,0-1.584,0.759-1.947,1.65l-4.39,10.693c-1.716,4.158-3.432,7.459-6.964,7.459
			c-2.772,0-4.951-1.222-4.951-4.258c0-1.749,1.122-2.806,2.838-2.806c1.287,0,2.475,0.793,2.475,2.179s-0.594,2.112-1.749,2.112
			c-0.297,0-0.66-0.033-0.924-0.132c0.099,0.792,1.254,0.858,1.881,0.858c2.013,0,2.838-2.112,3.564-3.961l-5.214-11.75
			c-0.495-1.221-0.825-2.046-1.684-2.046h-1.056v-2.641h10v2.641h-1.089c-0.726,0-1.089,0.099-1.089,0.627
			c0,0.198,0.066,0.396,0.198,0.693l2.706,6.105h0.066l2.344-6.007c0.132-0.33,0.198-0.66,0.198-0.891
			c0-0.298-0.264-0.528-0.99-0.528h-0.957v-2.641H80.664z"/>
		<path d="M88.845,81.905h0.066C89.868,79.892,91.584,79,93.697,79c4.984,0,6.469,4.191,6.469,8.219
			c0,4.026-1.485,8.218-6.469,8.218c-1.98,0-3.829-0.759-4.521-2.211l-0.066,0.065v4.588c0,0.924,0.231,1.419,1.188,1.419h1.353
			v2.641H81.188v-2.641h1.254c0.957,0,1.188-0.495,1.188-1.419V83.555c0-0.924-0.231-1.419-1.188-1.419h-1.287v-2.641h7.69V81.905z
			 M89.109,87.351c0,3.234,0.759,5.247,2.607,5.247c1.848,0,2.607-2.013,2.607-5.247s-0.759-5.281-2.607-5.281
			C89.868,82.07,89.109,84.117,89.109,87.351z"/>
		<path d="M119.305,87.219c0,5.28-3.597,8.218-8.515,8.218c-4.917,0-8.515-2.938-8.515-8.218c0-5.281,3.598-8.219,8.515-8.219
			C115.708,79,119.305,81.938,119.305,87.219z M108.117,87.219c0,3.895,0.693,5.577,2.673,5.577s2.673-1.683,2.673-5.577
			s-0.693-5.578-2.673-5.578S108.117,83.325,108.117,87.219z"/>
		<path d="M133.363,92.863c2.838,0,5.776,0.693,5.776,4.125c0,4.126-4.489,4.951-9.637,4.951c-4.753,0-8.317-0.792-8.317-3.234
			c0-1.552,1.485-2.244,2.772-2.476v-0.066c-1.254-0.429-2.508-1.518-2.508-2.97c0-1.98,1.089-2.674,2.838-3.367
			c-1.551-1.089-2.245-2.64-2.245-5.017c0-3.96,3.862-5.809,7.327-5.809c1.782,0,3.499,0.594,5.017,1.485
			c1.023-0.892,2.245-1.485,3.631-1.485c1.815,0,3.597,1.122,3.597,3.103c0,1.519-0.924,2.376-2.442,2.376
			c-1.089,0-1.815-0.825-1.815-1.881c0-0.727,0.396-1.222,0.924-1.65c-0.727-0.132-1.716-0.594-2.839,0.693
			c0.594,0.99,1.155,2.211,1.155,3.399c0,4.323-3.499,6.238-7.591,6.238c-1.122,0-2.311-0.133-3.367-0.562
			c-0.33,0.099-0.66,0.462-0.66,0.957c0,0.825,1.155,1.188,1.684,1.188H133.363z M130.26,99.728c2.772,0,4.984-0.396,4.984-1.354
			c0-1.155-2.211-1.354-4.984-1.354s-4.983,0.198-4.983,1.354C125.277,99.332,127.488,99.728,130.26,99.728z M127.389,85.139
			c0,2.442,0.462,4.093,1.914,4.093s1.914-1.65,1.914-4.093s-0.462-4.125-1.914-4.125S127.389,82.697,127.389,85.139z"/>
		<path d="M142.501,79.496h7.79v2.641h0.066c0.66-1.584,1.914-3.136,3.861-3.136c2.046,0,3.762,1.584,3.762,3.763
			c0,1.419-1.089,2.938-2.641,2.938c-1.385,0-2.64-0.66-2.64-2.179c0-1.122,0.627-1.815,1.716-2.013
			c-0.33-0.33-0.627-0.363-1.056-0.363c-1.716,0-2.839,2.211-2.839,3.828v5.908c0,0.924,0.231,1.419,1.188,1.419h1.353v2.641
			h-10.561v-2.641h1.354c0.957,0,1.188-0.495,1.188-1.419v-7.327c0-0.924-0.231-1.419-1.188-1.419h-1.354V79.496z"/>
		<path d="M178.178,89.298v1.815c0,3.3-1.254,4.323-4.918,4.323c-1.584,0-3.135-0.759-3.664-2.344
			c-1.353,1.617-2.938,2.344-5.082,2.344c-3.136,0-5.083-1.222-5.083-4.588c0-6.237,9.803-2.574,9.803-6.897
			c0-2.179-1.386-2.904-3.202-2.904c-0.891,0-1.814,0.132-2.607,0.627v0.065c0.99,0.132,2.08,0.66,2.08,1.815
			c0,1.452-1.287,2.079-2.607,2.079c-1.551,0-2.871-0.891-2.871-2.442c0-3.663,4.983-4.191,7.656-4.191
			c4.521,0,6.965,1.057,6.965,5.875v6.139c0,0.957,0.099,1.32,0.627,1.32c0.726,0,1.089-0.429,1.089-2.277v-0.759H178.178z
			 M169.167,87.318c-1.584,0.924-4.257,1.122-4.257,3.168c0,1.354,0.857,1.849,1.881,1.849c1.881,0,2.376-1.386,2.376-2.772V87.318z
			"/>
		<path d="M186.029,81.905h0.066c0.957-2.013,2.673-2.904,4.785-2.904c4.984,0,6.469,4.191,6.469,8.219
			c0,4.026-1.484,8.218-6.469,8.218c-1.98,0-3.828-0.759-4.521-2.211l-0.066,0.065v4.588c0,0.924,0.231,1.419,1.188,1.419h1.353
			v2.641h-10.462v-2.641h1.255c0.957,0,1.188-0.495,1.188-1.419V83.555c0-0.924-0.23-1.419-1.188-1.419h-1.287v-2.641h7.689V81.905z
			 M186.293,87.351c0,3.234,0.76,5.247,2.607,5.247c1.849,0,2.607-2.013,2.607-5.247s-0.759-5.281-2.607-5.281
			C187.053,82.07,186.293,84.117,186.293,87.351z"/>
		<path d="M207.083,73.06v8.977h0.065c1.453-2.112,3.004-3.036,5.678-3.036c3.762,0,5.017,2.179,5.017,5.611v6.271
			c0,0.924,0.231,1.419,1.188,1.419h1.254v2.641h-9.803v-2.641h0.693c0.957,0,1.188-0.495,1.188-1.419v-5.677
			c0-1.914-0.297-3.234-2.541-3.234c-1.518,0-2.475,1.419-2.475,2.806v6.105c0,0.924,0.23,1.419,1.188,1.419h0.792v2.641h-9.968
			v-2.641h1.32c0.957,0,1.188-0.495,1.188-1.419V77.12c0-0.925-0.231-1.42-1.188-1.42h-1.354v-2.64H207.083z"/>
		<path d="M240.184,79.496v2.641h-0.627c-1.287,0-1.586,0.759-1.947,1.65l-4.391,10.693c-1.717,4.158-3.432,7.459-6.965,7.459
			c-2.771,0-4.949-1.222-4.949-4.258c0-1.749,1.121-2.806,2.838-2.806c1.287,0,2.475,0.793,2.475,2.179s-0.594,2.112-1.748,2.112
			c-0.297,0-0.66-0.033-0.924-0.132c0.098,0.792,1.254,0.858,1.881,0.858c2.014,0,2.838-2.112,3.564-3.961l-5.215-11.75
			c-0.496-1.221-0.826-2.046-1.684-2.046h-1.057v-2.641h10.002v2.641h-1.09c-0.727,0-1.09,0.099-1.09,0.627
			c0,0.198,0.066,0.396,0.199,0.693l2.705,6.105h0.066l2.344-6.007c0.131-0.33,0.197-0.66,0.197-0.891
			c0-0.298-0.264-0.528-0.99-0.528h-0.957v-2.641H240.184z"/>
	</g>
	<g>
		<path fill="#FFFFFF" d="M93.058,170.5c0,2.761,2.239,5,5,5h41.976c2.761,0,5-2.239,5-5V111c0-2.761-2.239-5-5-5H98.058
			c-2.761,0-5,2.239-5,5V170.5z"/>
		<path d="M140.033,177H98.058c-3.584,0-6.5-2.916-6.5-6.5V111c0-3.584,2.916-6.5,6.5-6.5h41.976c3.584,0,6.5,2.916,6.5,6.5v59.5
			C146.533,174.084,143.617,177,140.033,177z M98.058,107.5c-1.93,0-3.5,1.57-3.5,3.5v59.5c0,1.93,1.57,3.5,3.5,3.5h41.976
			c1.93,0,3.5-1.57,3.5-3.5V111c0-1.93-1.57-3.5-3.5-3.5H98.058z"/>
	</g>
	<g>
		<path d="M114.302,117.518v3.721h2.46v1.601h-2.46v5.501c0,0.42,0.22,0.761,0.68,0.761c0.76,0,0.96-0.54,0.96-1.461v-1.56h1.6v1.78
			c0,1.96-0.96,3.04-3.361,3.04c-2.06,0-3.201-1-3.201-3.04v-5.021h-1.34v-1.601c2,0,2.521-2.061,2.681-3.721H114.302z"/>
		<path d="M129.884,121.238v1.601h-0.38c-0.78,0-0.96,0.46-1.18,1l-2.661,6.481c-1.04,2.521-2.081,4.521-4.221,4.521
			c-1.681,0-3-0.74-3-2.581c0-1.06,0.68-1.7,1.72-1.7c0.78,0,1.5,0.48,1.5,1.32s-0.36,1.28-1.061,1.28c-0.18,0-0.4-0.02-0.56-0.08
			c0.06,0.48,0.76,0.521,1.14,0.521c1.22,0,1.721-1.28,2.161-2.4l-3.161-7.122c-0.3-0.74-0.5-1.24-1.021-1.24h-0.64v-1.601h6.062
			v1.601h-0.66c-0.44,0-0.66,0.061-0.66,0.38c0,0.12,0.04,0.24,0.12,0.42l1.64,3.701h0.04l1.42-3.641c0.08-0.2,0.12-0.4,0.12-0.54
			c0-0.181-0.16-0.32-0.6-0.32h-0.58v-1.601H129.884z"/>
		<path d="M112.622,142.699h0.04c0.58-1.221,1.62-1.761,2.9-1.761c3.021,0,3.921,2.541,3.921,4.981s-0.9,4.98-3.921,4.98
			c-1.2,0-2.32-0.46-2.74-1.34l-0.04,0.04v2.78c0,0.561,0.14,0.86,0.72,0.86h0.82v1.601h-6.341v-1.601h0.76
			c0.58,0,0.72-0.3,0.72-0.86v-8.682c0-0.561-0.14-0.86-0.72-0.86h-0.78v-1.601h4.661V142.699z M112.782,146
			c0,1.96,0.46,3.181,1.58,3.181c1.121,0,1.581-1.221,1.581-3.181c0-1.961-0.46-3.201-1.581-3.201
			C113.242,142.799,112.782,144.039,112.782,146z"/>
		<path d="M124.382,146.38c0,1.4,0.32,2.801,2,2.801c0.7,0,1.84-0.54,2.02-1.721h2.321c-0.32,2.4-2.661,3.44-4.821,3.44
			c-3.42,0-5.061-1.9-5.061-4.98c0-3.101,2.201-4.981,5.061-4.981c3.261,0,5.081,2.32,5.081,5.441H124.382z M127.442,144.779v-0.521
			c0-1.02-0.54-1.72-1.5-1.72c-0.98,0-1.52,0.7-1.52,1.72v0.521H127.442z"/>
	</g>
	<g>
		<path fill="#FFFFFF" d="M130.562,200.498c0,2.761,2.239,5,5,5h102.5c2.762,0,5-2.239,5-5v-53c0-2.761-2.238-5-5-5h-102.5
			c-2.761,0-5,2.239-5,5V200.498z"/>
		<path d="M238.062,206.998h-102.5c-3.584,0-6.5-2.916-6.5-6.5v-53c0-3.584,2.916-6.5,6.5-6.5h102.5c3.584,0,6.5,2.916,6.5,6.5v53
			C244.562,204.082,241.646,206.998,238.062,206.998z M135.562,143.998c-1.93,0-3.5,1.57-3.5,3.5v53c0,1.93,1.57,3.5,3.5,3.5h102.5
			c1.93,0,3.5-1.57,3.5-3.5v-53c0-1.93-1.57-3.5-3.5-3.5H135.562z"/>
	</g>
	<g>
		<path fill="#FFFFFF" d="M81.058,185.002c0,2.761,2.239,5,5,5h8.5c2.761,0,5-2.239,5-5v-21c0-2.761-2.239-5-5-5h-8.5
			c-2.761,0-5,2.239-5,5V185.002z"/>
		<path d="M94.558,191.502h-8.5c-3.584,0-6.5-2.916-6.5-6.5v-21c0-3.584,2.916-6.5,6.5-6.5h8.5c3.584,0,6.5,2.916,6.5,6.5v21
			C101.058,188.586,98.142,191.502,94.558,191.502z M86.058,160.502c-1.93,0-3.5,1.57-3.5,3.5v21c0,1.93,1.57,3.5,3.5,3.5h8.5
			c1.93,0,3.5-1.57,3.5-3.5v-21c0-1.93-1.57-3.5-3.5-3.5H86.058z"/>
	</g>
	<g>
		<path d="M91.081,171.319v2.23h1.475v0.96h-1.475v3.298c0,0.252,0.132,0.456,0.408,0.456c0.456,0,0.576-0.324,0.576-0.876v-0.936
			h0.959v1.067c0,1.176-0.576,1.823-2.015,1.823c-1.235,0-1.919-0.6-1.919-1.823v-3.01h-0.803v-0.96c1.199,0,1.511-1.235,1.607-2.23
			H91.081z"/>
	</g>
	<g>
		<path d="M150.486,160.087v7.813h5.168v3.36h-5.168v11.552c0,0.883,0.463,1.597,1.429,1.597c1.597,0,2.017-1.135,2.017-3.066
			v-3.277h3.36v3.739c0,4.116-2.017,6.385-7.058,6.385c-4.326,0-6.721-2.101-6.721-6.385v-10.544h-2.814v-3.36
			c4.201,0,5.293-4.327,5.629-7.813H150.486z"/>
		<path d="M183.207,167.9v3.36h-0.799c-1.638,0-2.016,0.966-2.479,2.101l-5.586,13.61c-2.186,5.293-4.369,9.493-8.864,9.493
			c-3.528,0-6.302-1.554-6.302-5.419c0-2.227,1.43-3.57,3.613-3.57c1.639,0,3.15,1.008,3.15,2.772s-0.756,2.688-2.227,2.688
			c-0.377,0-0.84-0.042-1.176-0.168c0.126,1.008,1.596,1.092,2.395,1.092c2.562,0,3.612-2.688,4.537-5.041l-6.638-14.954
			c-0.63-1.555-1.05-2.604-2.142-2.604h-1.345v-3.36h12.728v3.36h-1.386c-0.925,0-1.386,0.126-1.386,0.798
			c0,0.252,0.084,0.504,0.252,0.883l3.444,7.771h0.084l2.982-7.645c0.168-0.421,0.252-0.841,0.252-1.135
			c0-0.378-0.336-0.672-1.261-0.672h-1.218v-3.36H183.207z"/>
		<path d="M193.619,170.967h0.084c1.219-2.562,3.403-3.697,6.092-3.697c6.343,0,8.233,5.335,8.233,10.46s-1.891,10.46-8.233,10.46
			c-2.521,0-4.873-0.966-5.756-2.814l-0.084,0.084v5.839c0,1.177,0.295,1.807,1.513,1.807h1.723v3.36h-13.316v-3.36h1.597
			c1.218,0,1.512-0.63,1.512-1.807v-18.23c0-1.177-0.294-1.807-1.512-1.807h-1.639v-3.36h9.787V170.967z M193.955,177.897
			c0,4.117,0.967,6.68,3.319,6.68s3.318-2.562,3.318-6.68c0-4.116-0.966-6.721-3.318-6.721S193.955,173.781,193.955,177.897z"/>
		<path d="M218.314,178.696c0,2.94,0.673,5.881,4.201,5.881c1.471,0,3.865-1.135,4.243-3.612h4.872
			c-0.672,5.04-5.586,7.225-10.123,7.225c-7.184,0-10.628-3.99-10.628-10.46c0-6.511,4.62-10.46,10.628-10.46
			c6.848,0,10.67,4.873,10.67,11.427H218.314z M224.742,175.335v-1.092c0-2.143-1.135-3.612-3.15-3.612
			c-2.059,0-3.193,1.47-3.193,3.612v1.092H224.742z"/>
	</g>
</g>
</svg>
