<?xml version="1.0" encoding="utf-8"?>
<!-- Generator: Adobe Illustrator 16.0.4, SVG Export Plug-In . SVG Version: 6.00 Build 0)  -->
<!DOCTYPE svg PUBLIC "-//W3C//DTD SVG 1.1//EN" "http://www.w3.org/Graphics/SVG/1.1/DTD/svg11.dtd">
<svg version="1.1" id="Layer_1" xmlns="http://www.w3.org/2000/svg" xmlns:xlink="http://www.w3.org/1999/xlink" x="0px" y="0px"
	 width="288px" height="238px" viewBox="0 0 288 238" enable-background="new 0 0 288 238" xml:space="preserve">
<g>
	<g>
		<path fill="#FFFFFF" d="M35.558,148.502c0,2.761,2.239,5,5,5h207c2.762,0,5-2.239,5-5v-111c0-2.761-2.238-5-5-5h-207
			c-2.761,0-5,2.239-5,5V148.502z"/>
		<path fill="none" stroke="#000000" stroke-width="3" stroke-miterlimit="10" d="M35.558,148.502c0,2.761,2.239,5,5,5h207
			c2.762,0,5-2.239,5-5v-111c0-2.761-2.238-5-5-5h-207c-2.761,0-5,2.239-5,5V148.502z"/>
	</g>
	<rect x="35.442" y="72.502" fill="none" width="216.726" height="74.5"/>
	<text transform="matrix(1 0 0 1 46.6382 94.9419)" font-family="'Clarendon-Bold'" font-size="33">typography</text>
	<g>
		<path fill="#FFFFFF" d="M93.058,170.5c0,2.761,2.239,5,5,5h41.976c2.761,0,5-2.239,5-5V111c0-2.761-2.239-5-5-5H98.058
			c-2.761,0-5,2.239-5,5V170.5z"/>
		<path fill="none" stroke="#000000" stroke-width="3" stroke-miterlimit="10" d="M93.058,170.5c0,2.761,2.239,5,5,5h41.976
			c2.761,0,5-2.239,5-5V111c0-2.761-2.239-5-5-5H98.058c-2.761,0-5,2.239-5,5V170.5z"/>
	</g>
	<rect x="96.561" y="117" fill="none" width="46.5" height="42.5"/>
	<text transform="matrix(1 0 0 1 109.2612 130.6006)"><tspan x="0" y="0" font-family="'Clarendon-Bold'" font-size="20">ty </tspan><tspan x="-1.12" y="20" font-family="'Clarendon-Bold'" font-size="20">pe</tspan></text>
	<g>
		<path fill="#FFFFFF" d="M130.562,200.498c0,2.761,2.239,5,5,5h102.5c2.762,0,5-2.239,5-5v-53c0-2.761-2.238-5-5-5h-102.5
			c-2.761,0-5,2.239-5,5V200.498z"/>
		<path fill="none" stroke="#000000" stroke-width="3" stroke-miterlimit="10" d="M130.562,200.498c0,2.761,2.239,5,5,5h102.5
			c2.762,0,5-2.239,5-5v-53c0-2.761-2.238-5-5-5h-102.5c-2.761,0-5,2.239-5,5V200.498z"/>
	</g>
	<g>
		<path fill="#FFFFFF" d="M81.058,185.002c0,2.761,2.239,5,5,5h8.5c2.761,0,5-2.239,5-5v-21c0-2.761-2.239-5-5-5h-8.5
			c-2.761,0-5,2.239-5,5V185.002z"/>
		<path fill="none" stroke="#000000" stroke-width="3" stroke-miterlimit="10" d="M81.058,185.002c0,2.761,2.239,5,5,5h8.5
			c2.761,0,5-2.239,5-5v-21c0-2.761-2.239-5-5-5h-8.5c-2.761,0-5,2.239-5,5V185.002z"/>
	</g>
	<rect x="88.058" y="171.002" fill="none" width="27.5" height="31"/>
	<text transform="matrix(1 0 0 1 88.0581 179.1626)" font-family="'Clarendon-Bold'" font-size="12">t</text>
	<rect x="131.062" y="158.998" fill="none" width="111" height="31"/>
	<text transform="matrix(1 0 0 1 139.9009 187.5596)" font-family="'Clarendon-Bold'" font-size="42">type</text>
</g>
</svg>
